<?xml version="1.0" encoding="utf-8"?>
<!-- Generator: Adobe Illustrator 28.3.0, SVG Export Plug-In . SVG Version: 6.00 Build 0)  -->
<svg version="1.1" id="Layer_1" xmlns="http://www.w3.org/2000/svg" xmlns:xlink="http://www.w3.org/1999/xlink" x="0px" y="0px"
	 viewBox="0 0 32 32" style="enable-background:new 0 0 32 32;" xml:space="preserve">
<style type="text/css">
	.st0{fill:none;stroke:#000000;stroke-width:1.8086;stroke-miterlimit:5.3333;}
</style>
<path class="st0" d="M16,29.2L16,29.2c-1.6-0.4-3.6-1.4-5.3-2.5c-1.4-0.9-3.3-2.4-4.4-4.2c-0.6-1-1-2-1-3V5.2c0-0.2,0.2-0.4,0.4-0.4
	c0.9,0,1.6-0.7,1.6-1.6c0-0.2,0.2-0.4,0.4-0.4h16.6c0.2,0,0.4,0.2,0.4,0.4c0,0.9,0.7,1.6,1.6,1.6c0.2,0,0.4,0.2,0.4,0.4v14.3
	c0,1-0.3,2-1,3c-1.1,1.7-3,3.2-4.4,4.2C19.6,27.8,17.6,28.8,16,29.2C16.1,29.2,16,29.2,16,29.2z"/>
<path d="M16,20.7c-1.7,1.4-3.8,2.2-6,2.4c1.7,1.4,4.3,3,6,3.5c1.8-0.5,4.3-2.2,6-3.5C19.8,22.9,17.7,22.1,16,20.7z"/>
<g>
	<path d="M22.2,9.2c-2.6,0.7-4.7,2.8-5.5,5.4v-3.8C18.2,9.6,20.3,8.9,22.2,9.2z"/>
	<path d="M15.3,14.6v-3.8c-1.5-1.2-3.6-1.8-5.5-1.6C12.4,9.8,14.5,11.9,15.3,14.6z"/>
</g>
<g>
	<path d="M22.8,18.9c0,0.4-0.5,0.8-0.9,1c-0.5,0-0.9,0.4-0.9,0.8c-0.8-0.1-3.6-1.1-4.2,0.2c-0.2-0.1-0.4-0.3-0.6-0.4
		c0.4-1,1.6-1.3,2.5-1.3c0.1,0,0.1-0.2,0.3-0.2c0.1,0,0.2,0,0.3,0.1c0.1-0.2,0.4-0.1,0.5,0c0.1-0.1,0.3-0.1,0.4,0
		c0.1-0.2,0.4-0.1,0.5,0.1c0.7,0,1.5-0.1,2.1-0.5C22.8,18.8,22.8,18.9,22.8,18.9z"/>
</g>
<path d="M18.4,13.3V16c-0.7,0-1.4,0.2-2,0.5l0,0c0.5-0.4,1.1-0.6,1.8-0.7L18.4,13.3z"/>
<path d="M19,13.2v3.4c-0.3-0.1-0.6-0.1-0.9-0.1c-0.4,0-0.8,0.1-1.1,0.1c0.5-0.2,1.1-0.4,1.7-0.4C18.6,16,18.9,13.5,19,13.2z"/>
<path d="M24.6,12.6c0,0.3,0,0.6-0.1,0.9c-0.6,0.3-1.3,0.6-2,0.7c0,0.1,0,0.3,0,0.4c0.7-0.1,1.4-0.4,2-0.7c-0.1,0.3-0.1,0.6-0.2,0.8
	c-0.6,0.3-1.2,0.5-1.9,0.6c0,0.1-0.1,0.3-0.1,0.4c0.6-0.1,1.3-0.3,1.8-0.5c-0.1,0.3-0.3,0.6-0.5,0.9c-0.5,0.2-1.1,0.3-1.6,0.4
	c-0.1,0.1-0.1,0.3-0.2,0.4c0.5,0,1-0.1,1.5-0.3c-0.2,0.3-0.8,0.9-0.8,0.9c-0.3,0.1-0.7,0.1-1.1,0.1c-0.1,0.1-0.2,0.2-0.3,0.4
	c0.3,0,0.7,0,1,0c-1,1-2.7,0.9-3.6-0.1l0,0c1.8-0.7,2.2-3,0.9-4.3c0-0.4,0.4-0.8,0.8-0.9c2.1,1.2,3.8,0.2,4.1-2.1l0,0
	C24.5,11.1,24.6,11.8,24.6,12.6z"/>
<path d="M16.6,16.9H16h-0.6c0,0.1-0.3,1.6-0.3,1.6c0.2,0.2,0.7,0.9,0.7,1.4h0.1v-1.3c-0.2-0.1-0.1-0.4,0.1-0.4s0.3,0.3,0.1,0.4v1.3
	h0.1c0-0.5,0.5-1.2,0.7-1.4C16.9,18.5,16.6,17,16.6,16.9z"/>
<path d="M7.4,12.6c0,0.3,0,0.6,0.1,0.9c0.6,0.3,1.3,0.6,2,0.7c0,0.1,0,0.3,0,0.4c-0.7-0.1-1.4-0.4-2-0.7c0.1,0.3,0.1,0.6,0.2,0.8
	c0.6,0.3,1.2,0.5,1.9,0.6c0,0.1,0.1,0.3,0.1,0.4c-0.6-0.1-1.3-0.3-1.8-0.5c0.1,0.3,0.3,0.6,0.5,0.9c0.5,0.2,1.1,0.3,1.6,0.4
	c0.1,0.1,0.1,0.3,0.2,0.4c-0.5,0-1-0.1-1.5-0.3c0.2,0.3,0.8,0.9,0.8,0.9c0.3,0.1,0.7,0.1,1.1,0.1c0.1,0.1,0.2,0.2,0.3,0.4
	c-0.3,0-0.7,0-1,0c1,1,2.7,0.9,3.6-0.1l0,0c-1.8-0.7-2.2-3-0.9-4.3c0-0.4-0.4-0.8-0.8-0.9c-2.1,1.2-3.8,0.2-4.1-2.1l0,0
	C7.5,11.1,7.4,11.8,7.4,12.6z"/>
<circle cx="16" cy="7.7" r="1.8"/>
<path d="M13.6,13.3V16c0.7,0,1.4,0.2,2,0.5l0,0c-0.5-0.4-1.1-0.6-1.8-0.7L13.6,13.3z"/>
<path d="M13,13.2v3.4c0.3-0.1,0.6-0.1,0.9-0.1c0.4,0,0.8,0.1,1.1,0.1c-0.5-0.2-1.1-0.4-1.7-0.4C13.4,16,13.1,13.5,13,13.2z"/>
<g>
	<path d="M9.2,18.9c0,0.4,0.5,0.8,0.9,1c0.5,0,0.9,0.4,0.9,0.8c0.8-0.1,3.6-1.1,4.2,0.2c0.2-0.1,0.4-0.3,0.6-0.4
		c-0.4-1-1.6-1.3-2.5-1.3c-0.1,0-0.1-0.2-0.3-0.2c-0.1,0-0.2,0-0.3,0.1c-0.1-0.2-0.4-0.1-0.5,0c-0.1-0.1-0.3-0.1-0.4,0
		c-0.1-0.2-0.4-0.1-0.5,0.1c-0.7,0-1.5-0.1-2.1-0.5C9.2,18.8,9.2,18.9,9.2,18.9z"/>
</g>
</svg>
